# xmcd
#
# Track frame offsets: 
#        150
#        7624
#        23995
#        25673
#        41606
#        58829
#        76728
#        80654
#        98483
#        102380
#        121244
#        142458
#        145601
#        167205
#        183490
#        186744
#        208960
#        212460
#        229606
#        249769
#
# Disc length: 3568 seconds
#
# Revision: 6
# Processed by: cddbd v1.5.2PL0 Copyright (c) Steve Scherf et al.
# Submitted via: ExactAudioCopyFreeDBPlugin 1.0
#
DISCID=0d0dee14
DTITLE=D-Flame - Basstard
DYEAR=2001
DGENRE=Rap
TTITLE0=Intro
TTITLE1=Basstard
TTITLE2=Heisser - Intro
TTITLE3=Heisser
TTITLE4=Sie Macht Mich Glücklich
TTITLE5=Feuerlawinen (Feat. Tone)
TTITLE6=KKK HaHaHa
TTITLE7=Wer - Who (Feat. Elephant Man)
TTITLE8=Meine Zunge Ist Schwer - Intro
TTITLE9=Daddy Groove (Feat. Eizi Eis)
TTITLE10=Sorry (Feat. Eißfeldt65)
TTITLE11=Wege
TTITLE12=Universal (Feat. Guru)
TTITLE13=Immer Mehr (Feat. Dynamite Deluxe)
TTITLE14=Wem Kann Ich Trauen?
TTITLE15=Lebe Deinen Traum
TTITLE16=Die Zukunft
TTITLE17=International Souljahz (Feat. Cocoa Brovaz)
TTITLE18=Wo Sind Wir Daheim (Feat. Tone, Chabs, Real J)
TTITLE19=We Ha Fi Reach (Feat. Jahmeek, Marlon B.)
EXTD=
EXTT0=
EXTT1=
EXTT2=
EXTT3=
EXTT4=
EXTT5=
EXTT6=
EXTT7=
EXTT8=
EXTT9=
EXTT10=
EXTT11=
EXTT12=
EXTT13=
EXTT14=
EXTT15=
EXTT16=
EXTT17=
EXTT18=
EXTT19=
PLAYORDER=
